<?xml version="1.0" standalone="no"?><!DOCTYPE svg PUBLIC "-//W3C//DTD SVG 1.1//EN" "http://www.w3.org/Graphics/SVG/1.1/DTD/svg11.dtd"><svg t="1710731966007" class="icon" viewBox="0 0 1024 1024" version="1.1" xmlns="http://www.w3.org/2000/svg" p-id="4731" xmlns:xlink="http://www.w3.org/1999/xlink" width="26" height="26"><path d="M813 237.7c-139.6-6.8-242.4-70.9-280.1-98-4.9-3.5-10.6-5.3-16.3-5.3-7.1 0-14.1 2.7-19.5 7.9-78.1 76.1-226.9 91-287.3 93.8-14.9 0.7-26.6 13-26.6 27.9v270.7c0 37.8 19.7 89.2 51.1 141.4 2.3 4.8 7.1 8.1 12.8 8.1 7.9 0 14.3-6.4 14.3-14.3 0-3.6-1.4-6.8-3.6-9.3l0.1-0.1c-28.6-47.3-46.7-93.2-46.7-125.8V264c63.4-3 220.4-18.7 305.5-101.7C559 192.9 666 258.5 811.6 265.6V544c0 89.1-165.6 324.3-298.1 324.3-56 0-125-49.1-180.7-108.4-0.1-0.1-0.3-0.1-0.4-0.2-2.6-3.2-6.4-5.4-10.9-5.4-7.9 0-14.3 6.4-14.3 14.3 0 4 1.7 7.6 4.4 10.2 0 0 0 0.1 0.1 0.1 61.2 65.8 136 117.3 201.8 117.3 151.9 0 326-250 326.1-352.2V265.6c0-14.9-11.7-27.2-26.6-27.9z" fill="#3259CE" p-id="4732"></path><path d="M511.3 650.7c-7.6 0-13.7-6.1-13.7-13.7V379.3c0-7.6 6.1-13.7 13.7-13.7s13.7 6.1 13.7 13.7V637c0.1 7.5-6.1 13.7-13.7 13.7z" fill="#3259CE" p-id="4733"></path><path d="M653.9 508.1c0 7.6-6.1 13.7-13.7 13.7H382.5c-7.6 0-13.7-6.1-13.7-13.7s6.1-13.7 13.7-13.7h257.6c7.6 0 13.8 6.2 13.8 13.7z" fill="#3259CE" p-id="4734"></path></svg>